<svg xmlns="http://www.w3.org/2000/svg" width="20.946" height="24" viewBox="0 0 20.946 24">
  <path id="Path_17870" data-name="Path 17870" d="M-271.257-421.149q0-2.52,0-5.04c0-.258.023-.515.033-.773a.411.411,0,0,1,.235-.363c1.172-.683,2.336-1.379,3.509-2.058q3.146-1.82,6.3-3.627c.049-.028.1-.053.15-.081a.452.452,0,0,1,.473.007c.791.45,1.588.889,2.376,1.343q3.155,1.819,6.3,3.649c.447.259.887.529,1.332.79a.339.339,0,0,1,.19.292c.012.253.04.506.04.76q0,5.119,0,10.238c0,.24-.026.48-.036.721a.386.386,0,0,1-.215.335c-.7.414-1.392.843-2.1,1.246q-3.733,2.13-7.473,4.246c-.164.093-.336.17-.5.266a.273.273,0,0,1-.3,0c-.627-.348-1.264-.68-1.886-1.036q-3.883-2.225-7.759-4.461c-.159-.092-.311-.2-.468-.291a.306.306,0,0,1-.161-.255c-.016-.266-.043-.532-.044-.8q-.006-2.553,0-5.106Zm1.147-4.69c0,.069,0,.111,0,.153q.016,4.915.03,9.83a.185.185,0,0,0,.109.184c.468.266.932.537,1.4.8l6.966,3.994c.059.034.121.061.2.1.006-.063.013-.1.014-.146.008-.306.021-.612.021-.918q0-4.4,0-8.793a.264.264,0,0,0-.151-.268q-3.969-2.284-7.933-4.576C-269.669-425.595-269.878-425.71-270.11-425.84Zm9.923,15.079c.089-.045.136-.067.181-.092,1.156-.657,2.314-1.311,3.467-1.973,1.623-.932,3.242-1.872,4.866-2.8a.32.32,0,0,0,.185-.32c0-.446.015-.892.014-1.338q-.006-4.2-.016-8.4c0-.037-.005-.074-.009-.123-.036.016-.06.024-.082.036q-1.741,1-3.479,2a.2.2,0,0,0-.076.145c-.015.455-.021.91-.031,1.364-.013.582-.025,1.163-.041,1.745,0,.047-.016.118-.048.137-.311.186-.628.364-.943.543-.077.044-.114.008-.122-.07s-.024-.182-.026-.274q-.026-1.3-.049-2.6c0-.054-.011-.108-.019-.184-.078.039-.136.066-.192.1q-1.742,1-3.483,2a.177.177,0,0,0-.1.177c0,.647-.007,1.295-.006,1.942q0,3.747.009,7.494C-260.187-411.1-260.187-410.951-260.187-410.761Zm3.143-13.227c-.209-.142-.382-.274-.568-.385q-1.991-1.2-3.986-2.382c-1.295-.766-2.6-1.521-3.894-2.281a.19.19,0,0,0-.217-.019q-1.792,1.041-3.587,2.077c-.1.057-.1.115-.012.176.143.1.283.206.434.294q3.865,2.239,7.73,4.479a.582.582,0,0,0,.667.009c.015-.009.031-.016.046-.024q1.284-.727,2.568-1.455C-257.6-423.648-257.345-423.808-257.044-423.988Zm4.928-2.893c-.093-.057-.155-.1-.218-.133-1.108-.644-2.213-1.293-3.325-1.93-1.655-.948-3.315-1.886-4.971-2.833a.3.3,0,0,0-.337,0q-1.637.944-3.278,1.88c-.032.018-.059.043-.111.081.233.152.443.3.664.431q3.491,2.062,6.987,4.116c.282.166.577.312.872.455a.286.286,0,0,0,.229.005q1.506-.868,3-1.752C-252.443-426.653-252.3-426.761-252.116-426.881Z" transform="translate(271.258 433.155)"/>
</svg>
