<svg width="21" height="21" viewBox="0 0 21 21" fill="none" xmlns="http://www.w3.org/2000/svg">
<g clip-path="url(#clip0_578_278)">
<path d="M20.257 9.45901L19.115 6.60401C19.031 6.39165 18.8849 6.20954 18.6958 6.08146C18.5067 5.95338 18.2834 5.88527 18.055 5.88601H15.072V5.07201C15.072 5.00771 15.0593 4.94404 15.0347 4.88464C15.01 4.82525 14.9739 4.7713 14.9284 4.72588C14.8829 4.68046 14.8289 4.64446 14.7694 4.61994C14.71 4.59543 14.6463 4.58288 14.582 4.58301H2.18199C1.87946 4.58354 1.5895 4.70409 1.37577 4.9182C1.16203 5.13231 1.04199 5.42248 1.04199 5.72501V14.861C1.04199 15.1639 1.16231 15.4544 1.37648 15.6685C1.59064 15.8827 1.88112 16.003 2.18399 16.003H3.70099C3.81142 16.5583 4.11097 17.0581 4.5486 17.4172C4.98622 17.7764 5.53485 17.9727 6.10099 17.9727C6.66713 17.9727 7.21576 17.7764 7.65339 17.4172C8.09102 17.0581 8.39056 16.5583 8.50099 16.003H12.84C12.9504 16.5583 13.25 17.0581 13.6876 17.4172C14.1252 17.7764 14.6738 17.9727 15.24 17.9727C15.8061 17.9727 16.3548 17.7764 16.7924 17.4172C17.23 17.0581 17.5296 16.5583 17.64 16.003H19.157C19.4599 16.003 19.7503 15.8827 19.9645 15.6685C20.1787 15.4544 20.299 15.1639 20.299 14.861V9.64101C20.2968 9.57821 20.2825 9.51642 20.257 9.45901ZM15.072 6.86701H18.056C18.0884 6.86668 18.1202 6.87601 18.1472 6.89383C18.1743 6.91164 18.1955 6.93712 18.208 6.96701L19.081 9.14801H15.072V6.86701ZM2.02099 5.72501C2.02099 5.68178 2.03817 5.64032 2.06873 5.60975C2.0993 5.57918 2.14076 5.56201 2.18399 5.56201H14.093V11.109H2.02099V5.72501ZM6.09899 16.983C5.80865 16.983 5.52483 16.8969 5.28341 16.7356C5.042 16.5743 4.85385 16.345 4.74274 16.0768C4.63163 15.8085 4.60256 15.5134 4.6592 15.2286C4.71584 14.9439 4.85566 14.6823 5.06096 14.477C5.26626 14.2717 5.52784 14.1319 5.8126 14.0752C6.09736 14.0186 6.39253 14.0476 6.66077 14.1588C6.92901 14.2699 7.15828 14.458 7.31959 14.6994C7.4809 14.9408 7.56699 15.2247 7.56699 15.515C7.56699 15.9043 7.41233 16.2777 7.13703 16.553C6.86172 16.8283 6.48833 16.983 6.09899 16.983ZM12.836 15.025H8.49699C8.38656 14.4697 8.08702 13.9699 7.64939 13.6108C7.21176 13.2516 6.66314 13.0553 6.09699 13.0553C5.53085 13.0553 4.98222 13.2516 4.5446 13.6108C4.10697 13.9699 3.80742 14.4697 3.69699 15.025H2.18399C2.14076 15.025 2.0993 15.0078 2.06873 14.9773C2.03817 14.9467 2.02099 14.9052 2.02099 14.862V12.083H14.093V13.346C13.7732 13.5153 13.4948 13.7531 13.2777 14.0425C13.0605 14.3319 12.9101 14.6657 12.837 15.02L12.836 15.025ZM15.236 16.983C14.9456 16.983 14.6618 16.8969 14.4204 16.7356C14.179 16.5743 13.9908 16.345 13.8797 16.0768C13.7686 15.8085 13.7396 15.5134 13.7962 15.2286C13.8528 14.9439 13.9927 14.6823 14.198 14.477C14.4033 14.2717 14.6648 14.1319 14.9496 14.0752C15.2344 14.0186 15.5295 14.0476 15.7978 14.1588C16.066 14.2699 16.2953 14.458 16.4566 14.6994C16.6179 14.9408 16.704 15.2247 16.704 15.515C16.704 15.7079 16.666 15.8988 16.5922 16.077C16.5183 16.2552 16.4101 16.4171 16.2737 16.5534C16.1372 16.6897 15.9753 16.7978 15.7971 16.8716C15.6189 16.9453 15.4289 16.9831 15.236 16.983ZM19.314 14.862C19.314 14.9052 19.2968 14.9467 19.2663 14.9773C19.2357 15.0078 19.1942 15.025 19.151 15.025H17.633C17.5195 14.4722 17.2187 13.9756 16.7815 13.6189C16.3442 13.2621 15.7973 13.0672 15.233 13.067C15.1786 13.0661 15.1242 13.0681 15.07 13.073V10.13H19.312L19.314 14.862Z" fill="black"/>
</g>
<defs>
<clipPath id="clip0_578_278">
<rect width="21" height="21" fill="white"/>
</clipPath>
</defs>
</svg>
