<svg id="weight" xmlns="http://www.w3.org/2000/svg" width="21.376" height="24" viewBox="0 0 21.376 24">
  <path id="Path_17870" data-name="Path 17870" d="M-250.514-421.149q0-2.52,0-5.04c0-.258-.023-.516-.032-.773a.411.411,0,0,0-.232-.363c-1.16-.683-2.313-1.379-3.476-2.058q-3.116-1.82-6.24-3.627c-.049-.028-.1-.053-.149-.081a.444.444,0,0,0-.468.007c-.783.45-1.573.889-2.353,1.343q-3.124,1.819-6.243,3.649c-.442.259-.878.529-1.319.79a.339.339,0,0,0-.188.292c-.012.253-.039.506-.04.76q0,5.119,0,10.238c0,.24.026.48.036.721a.386.386,0,0,0,.213.335c.694.414,1.379.843,2.078,1.246q3.7,2.13,7.4,4.246c.162.093.333.17.493.266a.268.268,0,0,0,.3,0c.621-.348,1.251-.68,1.868-1.036q3.845-2.225,7.684-4.461c.158-.092.308-.2.464-.291a.306.306,0,0,0,.159-.255c.016-.266.043-.532.043-.8q.006-2.553,0-5.106Zm-1.136-4.69c0,.069,0,.111,0,.153q-.016,4.915-.029,9.83a.186.186,0,0,1-.108.184c-.463.266-.923.537-1.385.8l-6.9,3.994c-.058.034-.12.061-.2.1-.006-.063-.013-.1-.014-.146-.008-.306-.021-.612-.021-.918q0-4.4,0-8.793a.265.265,0,0,1,.15-.268q3.931-2.284,7.857-4.576C-252.087-425.6-251.879-425.71-251.65-425.84Zm-9.828,15.079c-.089-.045-.135-.067-.179-.092-1.145-.657-2.291-1.311-3.433-1.973-1.608-.932-3.211-1.872-4.819-2.8a.321.321,0,0,1-.184-.32c0-.446-.014-.892-.014-1.338q.005-4.2.016-8.4c0-.037.005-.074.009-.123.036.016.06.024.081.036q1.724,1,3.446,2a.2.2,0,0,1,.075.145c.015.455.021.91.031,1.364.012.582.025,1.163.04,1.745,0,.047.015.118.048.137.308.186.622.364.934.543.077.044.113.009.121-.07s.024-.182.026-.274q.026-1.3.048-2.6c0-.054.011-.108.019-.184.077.039.135.066.19.1q1.725,1,3.45,2a.177.177,0,0,1,.1.177c0,.647.007,1.295.006,1.942q0,3.747-.009,7.494C-261.477-411.1-261.477-410.951-261.477-410.761Zm-3.112-13.227c.207-.142.379-.274.562-.385q1.972-1.2,3.948-2.382c1.282-.766,2.571-1.521,3.856-2.281a.186.186,0,0,1,.215-.019q1.775,1.041,3.553,2.077c.1.057.1.115.012.176-.141.1-.281.206-.43.294q-3.828,2.239-7.655,4.479a.571.571,0,0,1-.661.009c-.015-.009-.031-.016-.046-.024q-1.272-.727-2.543-1.455C-264.038-423.648-264.291-423.808-264.59-423.988Zm-4.881-2.893c.092-.057.153-.1.216-.133,1.1-.644,2.192-1.293,3.293-1.93,1.639-.948,3.283-1.886,4.923-2.833a.293.293,0,0,1,.334,0q1.621.944,3.247,1.88c.031.018.059.043.109.081-.23.152-.438.3-.657.431q-3.458,2.062-6.919,4.116c-.28.166-.572.312-.864.455a.28.28,0,0,1-.227.005q-1.492-.868-2.975-1.752C-269.146-426.653-269.292-426.761-269.47-426.881Z" transform="translate(271.889 433.155)" fill="none"/>
  <path id="Union_21" data-name="Union 21" d="M0,20.368,4,4.353H7.994A2.8,2.8,0,0,1,7.6,2.935,3.03,3.03,0,0,1,10.717,0a3.031,3.031,0,0,1,3.114,2.935,2.791,2.791,0,0,1-.39,1.418h4.588l.123.62,3,15.4Zm2.025-1.515h17.2L16.694,5.867H5.267ZM9.209,2.935a1.512,1.512,0,0,0,3.018,0,1.511,1.511,0,0,0-3.018,0Z" transform="translate(0 2.5)"/>
</svg>
